<svg xmlns="http://www.w3.org/2000/svg" width="512" height="512" viewBox="0 0 512 512">
  <path fill="#32a852" d="M325.3 234.3L104.2 31.4C99.4 26.9 93 24 86 24c-9.1 0-18 4.5-23.2 12.7C60.2 41.1 60 45.5 60 49.9v412.2c0 4.4.2 8.8 2.8 13.2 5.2 8.2 14.1 12.7 23.2 12.7 7 0 13.4-2.9 18.2-7.4l221.1-202.9c12.3-11.3 12.3-31 0-42.4z"/>
  <path fill="#4285f4" d="M350.7 212.5l-40.7-37.3L104.2 31.4C99.4 26.9 93 24 86 24c-9.1 0-18 4.5-23.2 12.7C60.2 41.1 60 45.5 60 49.9v206.1c20.2-6.8 41.7-6.9 62 0z"/>
  <path fill="#fbbc05" d="M60 256v206.1c0 4.4.2 8.8 2.8 13.2 5.2 8.2 14.1 12.7 23.2 12.7 7 0 13.4-2.9 18.2-7.4l205.8-188.8-40.7-37.3c-20.2-6.9-41.8-6.8-62 0z"/>
  <path fill="#ea4335" d="M452 240.5L350.7 212.5c-20.2-6.8-41.7-6.9-62 0l40.7 37.3-40.7 37.3c20.2 6.8 41.7 6.9 62 0l101.3-28c13.8-3.8 13.8-22.8 0-26.6z"/>
</svg>
